<svg xmlns="http://www.w3.org/2000/svg" width="2146.56" height="477.36" viewBox="0 0 2146.56 477.36"><defs><style>.a{fill:#09218b;}.b{fill:#ffd147;}</style></defs><path class="a" d="M421.68,177.2147c-19.6049-2.8553-35.9748-5.6467-56.16-7.2065L88.56,477.4822h225.6L486.48,192.5883C465.1928,186.1411,443.6781,180.4185,421.68,177.2147Z"/><path class="b" d="M504.1913,20.5323l-135.2,145.0325S623.43,182.0458,603.7136,304.9467,374.6247,429.26,374.6247,429.26C482.597,443.387,764.2634,375.1087,768.9579,222.071S504.1913,20.5323,504.1913,20.5323Z"/><path class="b" d="M416.7379,22.6115c81.86-1.0821,44.4823-1.8551,44.4823-1.8551S136.87-20.2192,20.1057,159.8933c-87.6418,135.1914,140.86,226.3294,140.86,226.3294L274.0244,261.9271s-98.54-23.9626-77.8437-92.758S334.8785,23.6937,416.7379,22.6115Z"/><path class="b" d="M912.6213,305.07v82.2q0,17.0069,2.5772,23.1475a17.2848,17.2848,0,0,0,7.955,8.9766q5.3783,2.8344,21.065,2.834v8.74H824.7771v-8.74q13.8918-.4761,20.6162-8.2666,4.48-5.4375,4.4819-28.1094V152.7161q0-23.3847-5.1538-29.88-5.1577-6.4937-19.9443-7.44v-8.74h87.8442v29.0532q10.9769-17.0068,22.4092-24.5654a62.1654,62.1654,0,0,1,35.6308-11.1016q23.078,0,42.0171,15.3535,18.9339,15.3567,28.7959,42.399a168.7406,168.7406,0,0,1,9.86,58.2251q0,33.5435-10.1963,61.2954-10.2,27.7587-29.5806,42.2812A70.2271,70.2271,0,0,1,968.42,334.1234a67.3923,67.3923,0,0,1-32.269-8.0313Q924.9428,319.9516,912.6213,305.07Zm0-23.8574q19.27,28.8209,41.2329,28.8174,12.1011,0,19.9444-13.4639,11.6492-19.8413,11.6528-75.5859,0-57.16-12.7735-78.1846-8.5188-13.9342-22.8574-13.936-22.637,0-37.1992,34.4858Z"/><path class="b" d="M1173.6882,106.6556v50.0757q20.8417-34.2459,36.5273-45.47,15.6826-11.2162,30.252-11.22,12.5478,0,20.0566,8.1489,7.5059,8.15,7.5079,23.03,0,15.8277-7.2833,24.5654-7.2861,8.7416-17.5917,8.74a29.4551,29.4551,0,0,1-20.6153-8.0308q-8.7421-8.0272-10.3086-8.976a9.4471,9.4471,0,0,0-5.1543-1.417q-6.5039,0-12.3261,5.1963-9.19,8.0331-13.8926,22.9121-7.1748,22.9137-7.1719,50.5483v50.7842l.2246,13.2275q0,13.4649,1.5684,17.2432a18.4562,18.4562,0,0,0,7.955,9.33q5.2647,2.9574,17.8165,3.6611v8.5039h-113.168v-8.5039q13.6669-1.1791,18.4883-7.9121,4.8163-6.7324,4.8183-35.55V153.4246q0-18.895-1.7929-24.0932-2.2442-6.61-6.4981-9.6846-4.26-3.0666-15.0156-4.2515v-8.74Z"/><path class="b" d="M1380.9743,100.0418a93.4131,93.4131,0,0,1,50.8692,14.8809q23.53,14.8813,35.7431,42.2812,12.211,27.4037,12.2129,59.9966,0,47.0069-22.6338,78.6572-27.3427,38.2647-75.52,38.2657-47.2851,0-72.83-34.959-25.5453-34.9556-25.5459-81.0191,0-47.4777,26.1065-82.79Q1335.48,100.0455,1380.9743,100.0418Zm.8965,16.7705q-11.4286,0-19.6084,9.0943-8.1827,9.0958-10.7558,35.9033-2.58,26.811-2.5772,74.5234a334.3275,334.3275,0,0,0,3.1367,47.2412q2.4639,16.7739,10.5323,25.5108,8.0683,8.7406,18.3759,8.7392,10.084,0,16.8067-5.9052,8.7406-8.0274,11.6533-22.44,4.4795-22.4385,4.4814-90.7036,0-40.1536-4.2578-55.1543-4.26-14.9972-12.5488-21.8491Q1391.2791,116.8128,1381.8708,116.8123Z"/><path class="b" d="M1594.7585,25.8729v80.7827h49.749V130.04h-49.749V266.3314q0,19.1324,1.6807,24.6836a17.8179,17.8179,0,0,0,5.9385,8.9755q4.2539,3.4278,7.8437,3.4258,14.5635,0,27.5635-23.3847l6.7226,5.1963q-18.1522,45.3515-58.9365,45.3515-19.9482,0-33.7265-11.6914-13.7812-11.6923-17.5909-26.1016-2.2427-8.0272-2.2412-43.4619V130.04h-27.3388v-8.2671q28.2348-21.0205,48.0673-44.1709a269.4022,269.4022,0,0,0,34.6231-51.729Z"/><path class="b" d="M1746.2448,106.6556V281.6849q0,23.3847,5.1543,29.88,5.1519,6.5,20.168,7.44v8.5039h-113.166v-8.5039q13.8911-.47,20.6162-8.5029,4.4795-5.4316,4.4814-28.8174V152.7161q0-23.3847-5.1533-29.88-5.1576-6.4937-19.9443-7.44v-8.74ZM1714.8718-.3464a32.516,32.516,0,0,1,24.65,10.7476,36.4662,36.4662,0,0,1,10.084,25.8647A35.8334,35.8334,0,0,1,1739.41,62.0125a32.7907,32.7907,0,0,1-24.5381,10.6294,32.4278,32.4278,0,0,1-24.4258-10.6294,36.0455,36.0455,0,0,1-10.084-25.7466,36.4662,36.4662,0,0,1,10.084-25.8647A32.2676,32.2676,0,0,1,1714.8718-.3464Z"/><path class="b" d="M1878.9079,106.6556v29.0532q17.253-19.8412,31.9336-27.7539a66.6836,66.6836,0,0,1,32.1572-7.9131q20.1681,0,33.8379,9.92,13.6656,9.9214,21.0645,30.2349,17.9253-21.2586,34.3984-30.707a68.1883,68.1883,0,0,1,34.3985-9.4483q21.7323,0,34.622,10.5112a54.6868,54.6868,0,0,1,17.9278,26.6915q5.0419,16.182,5.042,51.6113v90.4668q0,25.51,4.3691,31.6523,4.37,6.1451,18.2637,8.03v8.5039H2038.6862v-8.5039q12.7735-1.1791,18.8233-10.3926,4.0341-6.3778,4.0342-29.29V184.3675q0-29.5239-2.2412-37.5566-2.2428-8.0274-7.0586-11.9288a17.46,17.46,0,0,0-11.3174-3.8974q-9.6372,0-19.4951,7.4409-9.8643,7.44-19.9444,22.3213V279.3226q0,23.8608,3.81,29.999,5.1519,8.7408,19.72,9.6836v8.5039H1916.5554v-8.5039q8.7393-.47,13.7822-4.6055a19.7923,19.7923,0,0,0,6.7227-9.9209q1.68-5.7846,1.6806-25.1562V184.3675q0-29.9942-2.2412-37.5566A23.164,23.164,0,0,0,1928.9929,135a17.6871,17.6871,0,0,0-11.3164-4.2515,28.7377,28.7377,0,0,0-16.3594,4.96q-10.5351,7.325-22.4092,25.0381V279.3226q0,23.3847,4.37,30.8252t18.2637,8.8574v8.5039H1793.529v-8.5039q13.2188-1.4164,18.8233-8.9756,3.8085-5.1929,3.81-30.707V154.6058q0-25.0342-4.3691-31.18-4.37-6.1392-18.2637-8.0308v-8.74Z" preserveAspectRatio="xMidYMid meet"/></svg>